<?xml version="1.0" encoding="UTF-8" standalone="no"?>
<svg
   xmlns:dc="http://purl.org/dc/elements/1.1/"
   xmlns:cc="http://creativecommons.org/ns#"
   xmlns:rdf="http://www.w3.org/1999/02/22-rdf-syntax-ns#"
   xmlns:svg="http://www.w3.org/2000/svg"
   xmlns="http://www.w3.org/2000/svg"
   xmlns:sodipodi="http://sodipodi.sourceforge.net/DTD/sodipodi-0.dtd"
   xmlns:inkscape="http://www.inkscape.org/namespaces/inkscape"
   inkscape:version="1.0 (4035a4fb49, 2020-05-01)"
   sodipodi:docname="jetbrains.svg"
   xml:space="preserve"
   viewBox="0 0 100 100"
   height="100"
   width="100"
   y="0px"
   x="0px"
   id="Layer_1"
   version="1.1"><metadata
   id="metadata87"><rdf:RDF><cc:Work
       rdf:about=""><dc:format>image/svg+xml</dc:format><dc:type
         rdf:resource="http://purl.org/dc/dcmitype/StillImage" /><dc:title></dc:title></cc:Work></rdf:RDF></metadata><defs
   id="defs85" /><sodipodi:namedview
   inkscape:current-layer="Layer_1"
   inkscape:window-maximized="1"
   inkscape:window-y="0"
   inkscape:window-x="0"
   inkscape:cy="84.645428"
   inkscape:cx="143.39495"
   inkscape:zoom="3.3947773"
   showgrid="false"
   id="namedview83"
   inkscape:window-height="1059"
   inkscape:window-width="1920"
   inkscape:pageshadow="2"
   inkscape:pageopacity="0"
   guidetolerance="10"
   gridtolerance="10"
   objecttolerance="10"
   borderopacity="1"
   bordercolor="#666666"
   pagecolor="#ffffff" />
<g
   transform="matrix(0.76861739,0,0,0.76861739,3.8147966,1.5860643e-8)"
   id="g80">
	<linearGradient
   y2="73.239998"
   x2="110.2402"
   y1="120.5578"
   x1="31.8412"
   gradientUnits="userSpaceOnUse"
   id="XMLID_2_">
		<stop
   id="stop35"
   style="stop-color:#FCEE39"
   offset="0" />
		<stop
   id="stop37"
   style="stop-color:#F37B3D"
   offset="1" />
	</linearGradient>
	<path
   d="m 118.6,71.8 c 0.9,-0.8 1.4,-1.9 1.5,-3.2 0.1,-2.6 -1.8,-4.7 -4.4,-4.9 -1.2,-0.1 -2.4,0.4 -3.3,1.1 v 0 l -83.8,45.9 c -1.9,0.8 -3.6,2.2 -4.7,4.1 -2.9,4.8 -1.3,11 3.6,13.9 3.4,2 7.5,1.8 10.7,-0.2 v 0 0 c 0.2,-0.2 0.5,-0.3 0.7,-0.5 l 78,-54.8 c 0.4,-0.3 1.5,-1.1 1.7,-1.4 z"
   style="fill:url(#XMLID_2_)"
   id="XMLID_3041_" />
	<linearGradient
   y2="69.554604"
   x2="119.9179"
   y1="6.9082999"
   x1="48.360699"
   gradientUnits="userSpaceOnUse"
   id="XMLID_3_">
		<stop
   id="stop41"
   style="stop-color:#EF5A6B"
   offset="0" />
		<stop
   id="stop43"
   style="stop-color:#F26F4E"
   offset="0.57" />
		<stop
   id="stop45"
   style="stop-color:#F37B3D"
   offset="1" />
	</linearGradient>
	<path
   d="m 118.8,65.1 v 0 L 55,2.5 C 53.6,1 51.6,0 49.3,0 45,0 41.6,3.5 41.6,7.7 v 0 c 0,2.1 0.8,3.9 2.1,5.3 v 0 0 c 0.4,0.4 0.8,0.7 1.2,1 l 67.4,57.7 v 0 c 0.8,0.7 1.8,1.2 3,1.3 2.6,0.1 4.7,-1.8 4.9,-4.4 0,-1.3 -0.5,-2.6 -1.4,-3.5 z"
   style="fill:url(#XMLID_3_)"
   id="XMLID_3049_" />
	<linearGradient
   y2="37.1562"
   x2="10.5379"
   y1="63.640701"
   x1="52.946701"
   gradientUnits="userSpaceOnUse"
   id="XMLID_4_">
		<stop
   id="stop49"
   style="stop-color:#7C59A4"
   offset="0" />
		<stop
   id="stop51"
   style="stop-color:#AF4C92"
   offset="0.3852" />
		<stop
   id="stop53"
   style="stop-color:#DC4183"
   offset="0.7654" />
		<stop
   id="stop55"
   style="stop-color:#ED3D7D"
   offset="0.957" />
	</linearGradient>
	<path
   d="M 57.1,59.5 C 57,59.5 17.7,28.5 16.9,28 v 0 0 C 16.3,27.7 15.7,27.4 15.1,27.1 9.3,24.9 2.9,27.9 0.7,33.7 -1.2,38.8 0.9,44.4 5.3,47.1 v 0 0 c 0.7,0.4 1.3,0.7 2,0.9 0.4,0.2 45.4,18.8 45.4,18.8 v 0 c 1.8,0.8 3.9,0.3 5.1,-1.2 1.5,-1.9 1.2,-4.6 -0.7,-6.1 z"
   style="fill:url(#XMLID_4_)"
   id="XMLID_3042_" />
	<linearGradient
   y2="37.897099"
   x2="10.7706"
   y1="3.7019"
   x1="52.173599"
   gradientUnits="userSpaceOnUse"
   id="XMLID_5_">
		<stop
   id="stop59"
   style="stop-color:#EF5A6B"
   offset="0" />
		<stop
   id="stop61"
   style="stop-color:#EE4E72"
   offset="0.364" />
		<stop
   id="stop63"
   style="stop-color:#ED3D7D"
   offset="1" />
	</linearGradient>
	<path
   d="M 49.3,0 C 47.6,0 46,0.6 44.7,1.5 L 4.9,28.3 C 4.8,28.4 4.7,28.4 4.7,28.5 H 4.6 v 0 c -1.7,1.2 -3.1,3 -3.9,5.1 -2.2,5.8 0.8,12.3 6.6,14.4 3.6,1.4 7.5,0.7 10.4,-1.4 v 0 0 c 0.7,-0.5 1.3,-1 1.8,-1.6 L 54.1,13.8 v 0 c 1.8,-1.4 3,-3.6 3,-6.1 v 0 C 57.1,3.5 53.6,0 49.3,0 Z"
   style="fill:url(#XMLID_5_)"
   id="XMLID_3057_" />
	<g
   id="XMLID_3008_">
		<rect
   height="51"
   width="51"
   style="fill:#000000"
   y="37.400002"
   x="34.599998"
   id="XMLID_3033_" />
		<rect
   height="3.2"
   width="19.1"
   style="fill:#ffffff"
   y="78.800003"
   x="39"
   id="XMLID_3032_" />
		<g
   id="XMLID_3009_">
			<path
   d="m 38.8,50.8 1.5,-1.4 c 0.4,0.5 0.8,0.8 1.3,0.8 0.6,0 0.9,-0.4 0.9,-1.2 v -5.3 h 2.3 V 49 c 0,1 -0.3,1.8 -0.8,2.3 -0.5,0.5 -1.3,0.8 -2.3,0.8 -1.5,0.1 -2.3,-0.5 -2.9,-1.3 z"
   style="fill:#ffffff"
   id="XMLID_3030_" />
			<path
   d="M 45.3,43.8 H 52 v 1.9 H 47.6 V 47 h 4 v 1.8 h -4 v 1.3 h 4.5 v 2 h -6.7 z"
   style="fill:#ffffff"
   id="XMLID_3028_" />
			<path
   d="m 55,45.8 h -2.5 v -2 h 7.3 v 2 h -2.5 v 6.3 H 55 Z"
   style="fill:#ffffff"
   id="XMLID_3026_" />
			<path
   d="m 39,54 h 4.3 c 1,0 1.8,0.3 2.3,0.7 0.3,0.3 0.5,0.8 0.5,1.4 v 0 c 0,1 -0.5,1.5 -1.3,1.9 1,0.3 1.6,0.9 1.6,2 v 0 c 0,1.4 -1.2,2.3 -3.1,2.3 H 39 Z m 4.8,2.6 c 0,-0.5 -0.4,-0.7 -1,-0.7 h -1.5 v 1.5 h 1.4 c 0.7,-0.1 1.1,-0.3 1.1,-0.8 z M 43,59 h -1.8 v 1.5 H 43 c 0.7,0 1.1,-0.3 1.1,-0.8 v 0 C 44.1,59.2 43.7,59 43,59 Z"
   style="fill:#ffffff"
   id="XMLID_3022_" />
			<path
   d="m 46.8,54 h 3.9 c 1.3,0 2.1,0.3 2.7,0.9 0.5,0.5 0.7,1.1 0.7,1.9 v 0 c 0,1.3 -0.7,2.1 -1.7,2.6 l 2,2.9 h -2.6 l -1.7,-2.5 h -1 v 2.5 h -2.3 z m 3.8,4 c 0.8,0 1.2,-0.4 1.2,-1 v 0 c 0,-0.7 -0.5,-1 -1.2,-1 h -1.5 v 2 z"
   style="fill:#ffffff"
   id="XMLID_3019_" />
			<path
   d="M 56.8,54 H 59 l 3.5,8.4 H 60 l -0.6,-1.5 h -3.2 l -0.6,1.5 h -2.4 z m 2,5 L 57.9,56.7 57,59 Z"
   style="fill:#ffffff"
   id="XMLID_3016_" />
			<path
   d="m 62.8,54 h 2.3 v 8.3 h -2.3 z"
   style="fill:#ffffff"
   id="XMLID_3014_" />
			<path
   d="m 65.7,54 h 2.1 l 3.4,4.4 V 54 h 2.3 v 8.3 h -2 L 68,57.8 v 4.6 h -2.3 z"
   style="fill:#ffffff"
   id="XMLID_3012_" />
			<path
   d="M 73.7,61.1 75,59.6 c 0.8,0.7 1.7,1 2.7,1 0.6,0 1,-0.2 1,-0.6 v 0 c 0,-0.4 -0.3,-0.5 -1.4,-0.8 -1.8,-0.4 -3.1,-0.9 -3.1,-2.6 v 0 c 0,-1.5 1.2,-2.7 3.2,-2.7 1.4,0 2.5,0.4 3.4,1.1 l -1.2,1.6 c -0.8,-0.5 -1.6,-0.8 -2.3,-0.8 -0.6,0 -0.8,0.2 -0.8,0.5 v 0 c 0,0.4 0.3,0.5 1.4,0.8 1.9,0.4 3.1,1 3.1,2.6 v 0 c 0,1.7 -1.3,2.7 -3.4,2.7 -1.5,0.1 -2.9,-0.4 -3.9,-1.3 z"
   style="fill:#ffffff"
   id="XMLID_3010_" />
		</g>
	</g>
</g>
</svg>
