<?xml version="1.0" encoding="UTF-8" standalone="no"?>
<svg
   xmlns:dc="http://purl.org/dc/elements/1.1/"
   xmlns:cc="http://creativecommons.org/ns#"
   xmlns:rdf="http://www.w3.org/1999/02/22-rdf-syntax-ns#"
   xmlns:svg="http://www.w3.org/2000/svg"
   xmlns="http://www.w3.org/2000/svg"
   width="50"
   height="50"
   version="1.1"
   id="svg899">
  <defs
     id="defs903" />
  <metadata
     id="metadata887">
    <rdf:RDF>
      <cc:Work
         rdf:about="">
        <dc:format>image/svg+xml</dc:format>
        <dc:type
           rdf:resource="http://purl.org/dc/dcmitype/StillImage" />
        <dc:title></dc:title>
      </cc:Work>
    </rdf:RDF>
  </metadata>
  <g
     transform="matrix(0.65993268,0,0,0.65577234,-132.50551,-258.3517)"
     id="g897">
    <g
       transform="matrix(1.0188,0,0,-1.0188,-43.043,496.25)"
       id="g895">
      <path
         d="m 239.33,95.036 c 0,2.96 2.4604,5.361 5.4956,5.361 h 63.376 c 3.0351,0 5.4956,-2.401 5.4956,-5.361 V 30.919 c 0,-2.961 -2.4605,-5.361 -5.4956,-5.361 h -63.376 c -3.0352,0 -5.4956,2.4 -5.4956,5.361 z"
         fill="#006699"
         id="path889" />
      <path
         d="M 261.87,37.749 V 71.543 H 250.638 V 37.749 Z m -5.6163,38.408 c 3.917,0 6.355,2.595 6.355,5.838 -0.073,3.316 -2.438,5.839 -6.2807,5.839 -3.8423,0 -6.3545,-2.523 -6.3545,-5.839 0,-3.243 2.4375,-5.838 6.207,-5.838 h 0.073 z"
         fill="#ffffff"
         fill-rule="evenodd"
         id="path891" />
      <path
         d="m 268.09,37.749 h 11.232 v 18.872 c 0,1.01 0.073,2.019 0.3696,2.741 0.812,2.018 2.6602,4.108 5.7632,4.108 4.0645,0 5.6904,-3.099 5.6904,-7.642 V 37.749 h 11.232 v 19.377 c 0,10.38 -5.5415,15.21 -12.932,15.21 -6.0596,0 -8.7198,-3.387 -10.198,-5.694 h 0.075 v 4.901 h -11.232 c 0.1474,-3.171 0,-33.794 0,-33.794 z"
         fill="#ffffff"
         fill-rule="evenodd"
         id="path893" />
    </g>
  </g>
</svg>
