<?xml version="1.0" encoding="UTF-8" standalone="no"?>
<svg
   xmlns:dc="http://purl.org/dc/elements/1.1/"
   xmlns:cc="http://creativecommons.org/ns#"
   xmlns:rdf="http://www.w3.org/1999/02/22-rdf-syntax-ns#"
   xmlns:svg="http://www.w3.org/2000/svg"
   xmlns="http://www.w3.org/2000/svg"
   xmlns:sodipodi="http://sodipodi.sourceforge.net/DTD/sodipodi-0.dtd"
   xmlns:inkscape="http://www.inkscape.org/namespaces/inkscape"
   id="Logo_FIXED"
   data-name="Logo — FIXED"
   viewBox="0 0 50 50"
   version="1.1"
   sodipodi:docname="twitter.svg"
   width="50"
   height="50"
   inkscape:version="1.0 (4035a4fb49, 2020-05-01)">
  <style
     id="style833"></style>
  <metadata
     id="metadata15">
    <rdf:RDF>
      <cc:Work
         rdf:about="">
        <dc:format>image/svg+xml</dc:format>
        <dc:type
           rdf:resource="http://purl.org/dc/dcmitype/StillImage" />
        <dc:title>Twitter_Logo_Blue</dc:title>
      </cc:Work>
    </rdf:RDF>
  </metadata>
  <sodipodi:namedview
     inkscape:document-rotation="0"
     pagecolor="#ffffff"
     bordercolor="#666666"
     borderopacity="1"
     objecttolerance="10"
     gridtolerance="10"
     guidetolerance="10"
     inkscape:pageopacity="0"
     inkscape:pageshadow="2"
     inkscape:window-width="1920"
     inkscape:window-height="1059"
     id="namedview13"
     showgrid="false"
     inkscape:zoom="2.21"
     inkscape:cx="203.61991"
     inkscape:cy="38.914027"
     inkscape:window-x="0"
     inkscape:window-y="0"
     inkscape:window-maximized="1"
     inkscape:current-layer="Logo_FIXED" />
  <defs
     id="defs4">
    <style
       id="style2">.cls-1{fill:none;}.cls-2{fill:#1da1f2;}</style>
  </defs>
  <title
     id="title6">Twitter_Logo_Blue</title>
  <rect
     class="cls-1"
     width="50"
     height="50"
     id="rect8"
     x="0"
     y="0"
     style="stroke-width:0.125" />
  <path
     class="cls-2"
     d="m 19.2025,37.69875 c 11.7925,0 18.2425,-9.77 18.2425,-18.2425 0,-0.2775 0,-0.55375 -0.01875,-0.82875 A 13.045,13.045 0 0 0 40.625,15.30875 12.7975,12.7975 0 0 1 36.9425,16.3175 6.43375,6.43375 0 0 0 39.76125,12.77125 12.84875,12.84875 0 0 1 35.69,14.3275 6.4175,6.4175 0 0 0 24.76375,20.175 18.2025,18.2025 0 0 1 11.55,13.47625 6.41625,6.41625 0 0 0 13.535,22.035 6.36375,6.36375 0 0 1 10.625,21.2325 c 0,0.02625 0,0.05375 0,0.08125 a 6.41375,6.41375 0 0 0 5.14375,6.285 6.40125,6.40125 0 0 1 -2.895,0.11 6.41875,6.41875 0 0 0 5.99,4.4525 12.865,12.865 0 0 1 -7.9625,2.75 13.05125,13.05125 0 0 1 -1.52625,-0.0925 18.15125,18.15125 0 0 0 9.8275,2.875"
     id="path10"
     style="stroke-width:0.125" />
</svg>
